<svg width="66" height="14" viewBox="0 0 66 14" fill="none" xmlns="http://www.w3.org/2000/svg">
<path d="M10.3195 8.52286C10.5131 8.52286 10.6237 8.77854 10.6237 9.31832C10.6237 9.60242 10.5131 9.94334 10.2641 10.3411C10.0428 10.7388 9.73858 11.1081 9.35134 11.449C8.99175 11.79 8.57684 12.0741 8.10661 12.2729C7.66404 12.5002 7.22148 12.5854 6.77891 12.5854C6.19804 12.5854 5.81079 12.0457 5.58951 10.9945C5.3129 11.4775 4.92565 11.8752 4.45542 12.1877C3.9852 12.5002 3.37666 12.6707 2.57451 12.6707C1.80001 12.6707 1.16382 12.415 0.693594 11.932C0.223366 11.4206 -0.025579 10.824 0.00208151 10.1138C0.00208151 8.18194 0.638272 6.64782 1.883 5.53985C2.40855 5.08529 2.90644 4.77278 3.37666 4.63073C3.84689 4.48869 4.31712 4.40346 4.81501 4.40346C5.3129 4.40346 5.72781 4.48869 6.05973 4.68756C6.2257 4.34664 6.39166 4.20459 6.58528 4.20459C6.97253 4.20459 7.33212 4.37505 7.6917 4.71596C8.05129 5.05688 8.21725 5.3978 8.21725 5.68189C8.05129 6.05122 7.83001 6.50577 7.52574 7.01715C7.44276 7.52852 7.38744 8.26717 7.38744 9.20469C7.38744 10.1422 7.49808 10.6252 7.74703 10.6252C8.02363 10.6252 8.74281 10.0286 9.84923 8.86377C10.0705 8.6365 10.2365 8.52286 10.3195 8.52286ZM2.49153 9.5456C2.49153 10.4263 2.79579 10.8524 3.43198 10.8524C4.09584 10.8524 4.67671 10.4831 5.11928 9.74447C5.28524 9.48878 5.39588 9.17628 5.50652 8.83536C5.50652 7.55693 5.61717 6.47736 5.83845 5.56825C4.95331 5.73871 4.15116 6.19326 3.48731 6.90351C2.82345 7.61375 2.49153 8.49445 2.49153 9.5456Z" fill="#BEBEBE"/>
<path d="M17.6218 7.38646C17.6218 7.01713 17.4006 6.81827 16.9857 6.81827C16.7091 6.81827 16.3771 7.10236 16.0175 7.67056C15.658 8.23875 15.409 8.86376 15.243 9.51718V9.54559C15.243 9.94333 15.2984 10.3411 15.409 10.7388C15.5196 11.1365 15.575 11.4206 15.575 11.5911C15.575 11.9888 15.1047 12.3581 14.1643 12.7275C14.026 12.7843 13.8877 12.8127 13.777 12.8127C13.5004 12.8127 13.3068 12.6707 13.1962 12.3582C13.0855 12.0741 13.0302 11.6763 13.0302 11.1649C13.0302 10.6536 13.0579 10.1706 13.0855 9.74446C13.1132 9.2899 13.1408 8.89217 13.1685 8.49443C13.1962 8.12511 13.2238 7.78419 13.2515 7.5001C13.2791 7.216 13.3068 6.98872 13.3068 6.78986C13.3068 6.39212 13.1408 6.22166 12.7813 6.22166C12.4493 6.22166 12.0344 6.64781 11.5919 7.44328C11.1493 8.26716 10.9003 8.92058 10.9003 9.40354C10.9003 9.88651 10.9557 10.3411 11.0663 10.7388C11.1769 11.1365 11.2323 11.4206 11.2323 11.5911C11.2323 11.9888 10.762 12.3581 9.82158 12.7275C9.68328 12.7843 9.54498 12.8127 9.43434 12.8127C9.15773 12.8127 8.96411 12.6707 8.85346 12.3582C8.74282 12.0741 8.6875 11.6195 8.6875 10.9945C8.6875 9.37514 8.74282 8.21034 8.88112 7.5001C9.04709 6.44894 9.43433 5.4546 10.0152 4.48867C10.2088 4.17616 10.4301 4.00571 10.6514 4.00571C11.011 4.00571 11.3429 4.31821 11.6748 4.91482C11.7578 5.08527 11.8408 5.22732 11.8685 5.36937C12.394 4.68754 13.0302 4.34662 13.7494 4.34662C14.2196 4.34662 14.6622 4.51708 15.0218 4.82959C15.409 5.1421 15.575 5.56824 15.575 6.0512V6.25007C16.2388 5.39778 17.0686 4.94323 18.0368 4.94323C18.6453 4.94323 19.0879 5.11368 19.3921 5.42619C19.6964 5.7387 19.8624 6.13643 19.8624 6.59099C19.8624 7.04554 19.8347 7.47169 19.7517 7.84101C19.6964 8.21034 19.6134 8.57966 19.5304 8.89217C19.4474 9.23308 19.3645 9.51718 19.3091 9.77287C19.2538 10.0286 19.1985 10.2274 19.1985 10.3695C19.1985 10.5115 19.2538 10.5967 19.3368 10.5967C19.5028 10.5967 19.6964 10.4831 19.9453 10.2842C20.1943 10.057 20.4432 9.82969 20.6645 9.574C20.9135 9.31832 21.1347 9.09104 21.3284 8.86376C21.522 8.63648 21.6603 8.55125 21.7433 8.55125C21.9092 8.55125 21.9645 8.75012 21.9645 9.11945C21.9645 9.91492 21.5773 10.682 20.8028 11.449C20.0283 12.1877 19.1985 12.5854 18.3134 12.5854C17.5112 12.5854 17.124 11.8468 17.124 10.3411C17.124 9.97174 17.1793 9.46036 17.3176 8.77853C17.5665 8.15352 17.6218 7.67056 17.6218 7.38646Z" fill="#BEBEBE"/>
<path d="M26.7497 11.1082C25.8646 12.1593 24.8135 12.6991 23.5965 12.6991C22.3794 12.6991 21.4666 12.3866 20.8581 11.7332C20.2495 11.0798 19.9453 10.2843 19.9729 9.34678C19.9729 7.98312 20.3878 6.81832 21.2176 5.85239C22.0475 4.88646 23.1539 4.37509 24.5092 4.37509C25.1178 4.37509 25.6157 4.46032 26.0029 4.60237C26.6668 4.88647 26.971 5.14215 26.971 5.36943C26.971 5.53989 26.5008 5.65353 25.6157 5.65353C24.7029 5.65353 23.9284 5.99444 23.3198 6.61945C22.7113 7.27288 22.407 8.06835 22.407 9.06269C22.407 9.57406 22.5453 10.0002 22.8496 10.3411C23.1539 10.682 23.5688 10.8525 24.0943 10.8525C24.6199 10.8525 25.0625 10.7389 25.422 10.5116C24.6475 9.9718 24.2326 9.17632 24.2326 8.15358C24.2326 7.61379 24.4263 7.10242 24.8135 6.67628C25.2008 6.22172 25.6986 5.99444 26.3348 5.99444C26.9434 5.99444 27.3859 6.1649 27.6625 6.50582C27.9392 6.84673 28.0498 7.30129 28.0498 7.86948C28.0498 8.40926 27.9115 9.00587 27.6625 9.63088H27.7732C28.2711 9.63088 28.686 9.43201 29.0456 9.0911C29.1839 8.94905 29.2945 8.83541 29.3775 8.72177C29.4605 8.60813 29.5711 8.57972 29.6541 8.57972C29.8201 8.57972 29.8754 8.77859 29.8754 9.14792C29.8754 9.82975 29.6818 10.3695 29.2669 10.7104C28.8796 11.0514 28.437 11.2218 27.9392 11.2218C27.4966 11.2218 27.0817 11.165 26.7497 11.1082ZM26.6114 9.1195C26.8051 8.72177 26.8881 8.32403 26.8881 7.9263C26.8881 7.52856 26.7774 7.35811 26.5285 7.35811C26.4178 7.35811 26.3348 7.44334 26.2795 7.58538C26.2242 7.72743 26.1689 7.86948 26.1689 8.01153C26.1689 8.46608 26.3348 8.83541 26.6114 9.1195Z" fill="#BEBEBE"/>
<path d="M64.3403 12.6991C65.2569 12.6991 65.9999 11.9359 65.9999 10.9945C65.9999 10.0531 65.2569 9.28995 64.3403 9.28995C63.4237 9.28995 62.6807 10.0531 62.6807 10.9945C62.6807 11.9359 63.4237 12.6991 64.3403 12.6991Z" fill="#A1D5F6"/>
<path d="M47.2185 8.83543C47.4121 8.83543 47.4951 9.09112 47.4951 9.63091C47.4951 9.915 47.3844 10.2559 47.1355 10.6537C46.9142 11.0514 46.6099 11.4207 46.2227 11.7616C45.8631 12.1025 45.4482 12.3866 44.978 12.5855C44.5354 12.8128 44.0928 12.898 43.6779 12.898C43.263 12.898 42.9587 12.8128 42.7098 12.6707C42.4885 12.5003 42.2949 12.3014 42.1566 12.0173C41.963 11.6196 41.8247 10.8809 41.6864 9.80136C41.5757 8.7218 41.4374 7.95474 41.3268 7.52859C41.0502 7.47177 40.8012 7.35813 40.5799 7.18767C40.3587 7.01722 40.248 6.78994 40.248 6.53426C40.248 6.27857 40.3587 6.0797 40.5799 5.96606C40.8012 5.85242 41.0778 5.7956 41.3544 5.7956C41.6587 5.7956 41.9076 5.88083 42.1289 6.02288C42.4332 5.76719 42.6821 5.45469 42.8758 5.08536C43.0694 4.71604 43.1524 4.23307 43.1524 3.63647C43.1524 3.03986 42.9587 2.5569 42.5438 2.18758C42.1566 1.81825 41.5757 1.64779 40.8012 1.64779C40.0267 1.64779 39.4459 1.70461 39.0309 1.84666C38.616 1.9603 38.2565 2.10235 37.9798 2.2444C37.6756 2.38644 37.4266 2.52849 37.2054 2.64213C36.9841 2.75577 36.7628 2.841 36.5692 2.841C36.3755 2.841 36.2649 2.78418 36.2649 2.64213C36.2649 2.50008 36.3755 2.30121 36.5692 2.01712C36.7904 1.73302 37.0947 1.42052 37.5096 1.13642C38.5331 0.39777 39.6948 0.0284424 40.9948 0.0284424C42.2949 0.0284424 43.346 0.284128 44.2035 0.795502C45.1992 1.3921 45.6695 2.27281 45.6695 3.46601C45.6695 4.43194 45.4205 5.25582 44.9226 5.90924C44.4247 6.56266 43.7886 7.01722 43.0417 7.30131C43.2077 7.67064 43.346 8.06838 43.4566 8.52293C43.5673 8.94908 43.6779 9.34681 43.7609 9.71614C43.8715 10.0855 43.9822 10.3696 44.0928 10.6252C44.2311 10.8525 44.3694 10.9946 44.563 10.9946C44.7567 10.9946 44.978 10.8809 45.2269 10.6537C45.4758 10.4264 45.7525 10.1991 46.0014 9.94341C46.2503 9.68773 46.4993 9.43204 46.6929 9.20476C46.9972 8.94907 47.1355 8.83543 47.2185 8.83543ZM39.9991 2.69895C40.1374 2.69895 40.2203 2.89782 40.2203 3.26715C40.2203 3.66488 40.1927 4.00579 40.165 4.34671C40.0544 5.00013 39.9437 5.62514 39.7778 6.19334C39.3905 7.72746 39.1692 8.63657 39.1692 8.89225V11.3923C39.1692 12.0173 38.948 12.4151 38.4777 12.6423C38.2564 12.756 38.0628 12.8412 37.8692 12.9264C37.6756 13.0117 37.4543 13.0685 37.2054 13.0685C36.7351 13.0685 36.5138 12.5287 36.5138 11.4207C36.5138 10.3127 36.7628 8.94907 37.2607 7.2729C37.7586 5.59673 38.2841 4.3183 38.8097 3.46601C38.9203 3.29555 39.0863 3.12509 39.2799 2.92623C39.5288 2.78418 39.7778 2.69895 39.9991 2.69895Z" fill="#99D3F7"/>
<path d="M61.519 8.8354C61.7126 8.8354 61.7956 9.09109 61.7956 9.63087C61.7956 9.91497 61.6849 10.2559 61.436 10.6536C61.2147 11.0514 60.9105 11.4207 60.5232 11.7616C60.1636 12.1025 59.7487 12.3866 59.2785 12.5855C58.8359 12.8128 58.338 12.898 57.8401 12.898C57.3422 12.898 56.955 12.7275 56.6507 12.3866C56.3741 12.0457 56.2358 11.6764 56.2358 11.2502C56.2358 10.8241 56.2911 10.3695 56.4294 9.85815C56.5677 9.34678 56.706 8.77858 56.872 8.21039C57.2869 6.70468 57.5082 5.62511 57.5082 5.02851C57.5082 4.77282 57.4805 4.57395 57.3976 4.4319C57.3422 4.28986 57.2039 4.20463 57.0103 4.20463C56.6784 4.20463 56.3188 4.4035 55.9592 4.82964C55.572 5.22738 55.24 5.76716 54.9081 6.39217C54.1336 7.84107 53.7464 9.26155 53.6911 10.6536C53.7187 10.8241 53.7464 10.9661 53.7464 11.1366C53.774 11.307 53.774 11.4775 53.774 11.648C53.774 12.0173 53.6081 12.3582 53.2485 12.6423C52.8889 12.9548 52.5017 13.0968 52.0867 13.0968C51.8378 13.0968 51.6442 12.9548 51.5335 12.6991C51.4229 12.4434 51.3399 12.1309 51.3399 11.7616C51.3399 11.3923 51.4229 10.8809 51.5889 10.2275C51.7548 9.57405 51.9484 8.89222 52.1421 8.15357C52.6676 6.22171 52.9442 4.80123 52.9442 3.86371C52.9442 3.38075 52.8889 3.01142 52.7783 2.72732C52.6676 2.44323 52.4463 2.32959 52.1144 2.32959C51.5059 2.32959 50.925 2.75573 50.3441 3.63643C49.7633 4.51713 49.2377 5.8808 48.7675 7.69901C48.6568 8.18198 48.5462 8.57972 48.4909 8.94904L48.4632 9.26155C48.6845 10.3127 48.7675 10.9945 48.7675 11.307C48.7675 11.9605 48.5462 12.415 48.076 12.6423C47.8547 12.7559 47.6611 12.8412 47.4674 12.9264C47.2738 13.0116 47.0802 13.0684 46.8589 13.0684C46.3057 13.0684 46.0291 12.5287 46.0291 11.4491C46.0291 10.3695 46.3334 8.2388 46.9142 5.08533C47.1355 3.94894 47.2185 3.32393 47.2185 3.18188C47.2185 2.27277 46.9972 1.7898 46.527 1.7898C46.361 1.7898 46.2227 1.84662 46.1121 1.93185C45.9738 2.01708 45.8631 2.13072 45.7248 2.21595C45.5865 2.32959 45.4759 2.41482 45.3376 2.50005C45.1993 2.58528 45.061 2.64209 44.8674 2.64209C44.7014 2.64209 44.6184 2.50005 44.6184 2.18754C44.6184 1.56253 44.895 1.05115 45.4759 0.653419C46.0291 0.255683 46.6653 0.0284071 47.4398 0.0284071C48.4356 0.0284071 49.0164 0.511371 49.2101 1.44889C49.2654 1.73299 49.293 2.04549 49.3207 2.358C50.1505 0.767057 51.1739 0 52.4187 0C53.774 0 54.5485 0.681829 54.7698 2.01708C54.8251 2.41482 54.8528 2.81256 54.8528 3.26711V3.40916C55.572 2.38641 56.4294 1.87503 57.3976 1.87503C58.7806 1.87503 59.4998 2.72733 59.4998 4.46032C59.4998 5.19897 59.3891 6.07967 59.1678 7.10241C58.9466 8.09675 58.7806 8.8354 58.6699 9.26155C58.5593 9.68769 58.504 10.0286 58.504 10.2843C58.504 10.7104 58.6423 10.9377 58.9466 10.9377C59.2508 10.9377 59.9423 10.3411 61.0488 9.17632C61.2977 8.94904 61.436 8.8354 61.519 8.8354Z" fill="#99D3F7"/>
<path d="M37.897 6.56321C38.1736 6.56321 38.3119 6.84731 38.3119 7.38709C38.3119 7.92688 38.2012 8.52348 37.9523 9.14849C37.7034 9.77351 37.3438 10.3701 36.8459 10.9667C36.348 11.5633 35.7395 12.0463 34.965 12.4724C34.1905 12.8986 33.3053 13.0974 32.2819 13.0974C31.2585 13.0974 30.3457 12.7565 29.5712 12.0463C28.7967 11.336 28.4094 10.3133 28.4094 8.97803C28.4094 7.64278 28.603 6.42116 28.9626 5.3416C29.3222 4.26203 29.8201 3.32451 30.401 2.52904C31.0095 1.73357 31.6734 1.13697 32.4479 0.682415C33.2224 0.25627 33.9415 0.0289917 34.6054 0.0289917C35.7948 0.0289917 36.4033 0.568776 36.4033 1.67675C36.4033 2.30176 36.2927 2.81314 36.0714 3.18247C35.8501 3.55179 35.6288 3.75066 35.3799 3.75066C35.0756 3.75066 34.799 3.63702 34.5777 3.38133C34.3564 3.12564 34.0798 3.01201 33.8032 2.9836C33.5266 2.9836 32.7521 2.95519 32.1159 4.00634C31.6734 4.74499 31.7287 4.68818 31.5627 5.17114C31.2308 6.16548 31.0095 6.96095 31.0095 8.2962C31.0372 8.94963 31.5904 9.94396 32.0883 10.2565C32.4202 10.4837 32.8351 10.6542 33.3053 10.5974C34.3011 10.4553 34.8543 9.97237 35.2692 9.54623C35.6565 9.12008 35.9884 8.75075 36.348 8.32461C36.7076 7.89847 37.0118 7.50073 37.2885 7.15982C37.5374 6.76208 37.731 6.56321 37.897 6.56321Z" fill="#99D3F7"/>
</svg>
