<svg width="1392" height="848" viewBox="0 0 1392 848" fill="none" xmlns="http://www.w3.org/2000/svg">
<path fill-rule="evenodd" clip-rule="evenodd" d="M682.632 152.881C730.202 176.544 777.853 200.207 825.423 223.952C825.423 200.614 825.423 177.276 825.423 154.02C777.853 123.364 730.202 92.7075 682.632 62.0514V152.881Z" fill="#A8C714"/>
<path fill-rule="evenodd" clip-rule="evenodd" d="M687.104 155.077C733.211 178.008 779.317 200.939 825.423 223.87C825.423 200.533 825.423 177.195 825.423 153.938C779.317 124.258 733.211 94.5777 687.104 64.8973C687.104 94.9843 687.104 124.99 687.104 155.077Z" fill="#A6C414"/>
<path fill-rule="evenodd" clip-rule="evenodd" d="M691.577 157.273C736.219 179.391 780.862 201.671 825.423 223.871C825.423 200.533 825.423 177.195 825.423 153.939C780.781 125.153 736.138 96.4483 691.577 67.7438C691.577 97.5868 691.577 127.43 691.577 157.273Z" fill="#A6C214"/>
<path fill-rule="evenodd" clip-rule="evenodd" d="M696.049 159.549C739.147 180.935 782.325 202.403 825.423 223.951C825.423 200.614 825.423 177.276 825.423 154.019C782.325 126.209 739.147 98.4806 696.049 70.6705C696.049 100.27 696.049 129.869 696.049 159.549Z" fill="#A3BF14"/>
<path fill-rule="evenodd" clip-rule="evenodd" d="M700.521 161.745C742.155 182.399 783.789 203.135 825.423 223.87C825.423 200.533 825.423 177.195 825.423 153.938C783.789 127.104 742.155 100.27 700.521 73.5168C700.521 102.953 700.521 132.308 700.521 161.745Z" fill="#A1BF14"/>
<path fill-rule="evenodd" clip-rule="evenodd" d="M704.994 163.941C745.164 183.863 785.334 203.867 825.423 223.87C825.423 200.533 825.423 177.195 825.423 153.939C785.253 128.08 745.083 102.222 704.994 76.3632C704.994 105.556 704.994 134.748 704.994 163.941Z" fill="#9EBA14"/>
<path fill-rule="evenodd" clip-rule="evenodd" d="M709.466 166.136C748.091 185.326 786.798 204.598 825.423 223.87C825.423 200.533 825.423 177.195 825.423 153.938C786.798 129.056 748.091 104.173 709.466 79.2903C709.466 108.239 709.466 137.187 709.466 166.136Z" fill="#9CB814"/>
<path fill-rule="evenodd" clip-rule="evenodd" d="M713.938 168.413C751.1 186.871 788.261 205.411 825.423 223.87C825.423 200.533 825.423 177.195 825.423 153.938C788.261 129.95 751.1 106.043 713.938 82.1364C713.938 110.922 713.938 139.627 713.938 168.413Z" fill="#99B514"/>
<path fill-rule="evenodd" clip-rule="evenodd" d="M718.411 170.608C754.109 188.335 789.807 206.062 825.504 223.87C825.504 200.533 825.504 177.195 825.504 153.939C789.807 130.926 754.109 107.995 718.411 84.9827C718.411 113.606 718.411 142.067 718.411 170.608Z" fill="#99B314"/>
<path fill-rule="evenodd" clip-rule="evenodd" d="M722.884 172.804C757.036 189.799 791.27 206.794 825.504 223.87C825.504 200.532 825.504 177.195 825.504 153.938C791.352 131.902 757.118 109.865 722.884 87.9098C722.884 116.208 722.884 144.506 722.884 172.804Z" fill="#96B014"/>
<path fill-rule="evenodd" clip-rule="evenodd" d="M727.356 175.081C760.045 191.344 792.734 207.607 825.504 223.87C825.504 200.533 825.504 177.195 825.504 153.938C792.815 132.878 760.126 111.817 727.356 90.7559C727.356 118.891 727.356 146.945 727.356 175.081Z" fill="#94AD14"/>
<path fill-rule="evenodd" clip-rule="evenodd" d="M731.828 177.276C763.054 192.808 794.279 208.339 825.504 223.87C825.504 200.533 825.504 177.195 825.504 153.939C794.279 133.854 763.054 113.769 731.828 93.6022C731.828 121.575 731.828 149.385 731.828 177.276Z" fill="#91AB17"/>
<path fill-rule="evenodd" clip-rule="evenodd" d="M736.301 179.472C766.062 194.271 795.743 209.071 825.504 223.87C825.504 200.533 825.504 177.195 825.504 153.938C795.824 134.748 766.062 115.639 736.301 96.5293C736.301 124.177 736.301 151.824 736.301 179.472Z" fill="#8FA817"/>
<path fill-rule="evenodd" clip-rule="evenodd" d="M740.773 181.749C768.99 195.816 797.206 209.803 825.504 223.87C825.504 200.533 825.504 177.195 825.504 153.939C797.288 135.724 769.071 117.59 740.773 99.3755C740.773 126.86 740.773 154.264 740.773 181.749Z" fill="#8CA617"/>
<path fill-rule="evenodd" clip-rule="evenodd" d="M745.245 183.944C771.998 197.199 798.751 210.534 825.504 223.87C825.504 200.533 825.504 177.195 825.504 153.938C798.751 136.699 771.998 119.46 745.245 102.303C745.245 129.544 745.245 156.703 745.245 183.944Z" fill="#8CA317"/>
<path fill-rule="evenodd" clip-rule="evenodd" d="M749.718 186.14C775.007 198.662 800.215 211.266 825.504 223.87C825.504 200.533 825.504 177.195 825.504 153.939C800.215 137.675 775.007 121.412 749.718 105.149C749.718 132.146 749.718 159.143 749.718 186.14Z" fill="#8AA117"/>
<path fill-rule="evenodd" clip-rule="evenodd" d="M754.19 188.417C777.934 200.207 801.76 212.08 825.504 223.87C825.504 200.533 825.504 177.195 825.504 153.939C801.76 138.651 778.016 123.364 754.19 107.995C754.19 134.829 754.19 161.582 754.19 188.417Z" fill="#879E17"/>
<path fill-rule="evenodd" clip-rule="evenodd" d="M758.663 190.612C780.943 201.671 803.224 212.811 825.504 223.87C825.504 200.533 825.504 177.195 825.504 153.939C803.224 139.546 780.943 125.234 758.663 110.922C758.663 137.513 758.663 164.022 758.663 190.612Z" fill="#859C17"/>
<path fill-rule="evenodd" clip-rule="evenodd" d="M763.135 192.808C783.952 203.135 804.688 213.462 825.504 223.87C825.504 200.533 825.504 177.195 825.504 153.939C804.688 140.521 783.952 127.186 763.135 113.768C763.135 140.196 763.135 166.461 763.135 192.808Z" fill="#829917"/>
<path fill-rule="evenodd" clip-rule="evenodd" d="M767.607 195.085C786.879 204.68 806.232 214.275 825.504 223.87C825.504 200.533 825.504 177.195 825.504 153.939C806.232 141.497 786.879 129.056 767.607 116.696C767.607 142.798 767.607 168.901 767.607 195.085Z" fill="#809617"/>
<path fill-rule="evenodd" clip-rule="evenodd" d="M772.08 197.28C789.888 206.143 807.696 215.007 825.504 223.87C825.504 200.533 825.504 177.195 825.504 153.938C807.696 142.473 789.888 131.007 772.08 119.542C772.08 145.482 772.08 171.421 772.08 197.28Z" fill="#7D9417"/>
<path fill-rule="evenodd" clip-rule="evenodd" d="M776.552 199.476C792.897 207.607 809.16 215.739 825.505 223.87C825.505 200.533 825.505 177.195 825.505 153.939C809.16 143.449 792.897 132.878 776.552 122.388V199.476Z" fill="#7D9117"/>
<path fill-rule="evenodd" clip-rule="evenodd" d="M682.632 1.55219C730.202 36.8434 777.853 72.2159 825.423 107.426C825.423 84.1693 825.423 60.9129 825.423 37.6565C777.853 -4.54655 730.202 -46.8309 682.632 -89.0339V1.55219Z" fill="#BF294A"/>
<path fill-rule="evenodd" clip-rule="evenodd" d="M1392 457L825 456.826L825 387L1392 387.284V457Z" fill="#B83B12"/>
<path fill-rule="evenodd" clip-rule="evenodd" d="M1392 341L825.013 340.604L825 270L1392 270.522V341Z" fill="#2699B5"/>
<path fill-rule="evenodd" clip-rule="evenodd" d="M1392 224L825.49 223.87L825.7 153.87L1392 154.811V224Z" fill="#7D9117"/>
<path fill-rule="evenodd" clip-rule="evenodd" d="M1392 108L825.053 107.315L825 37H1392V108Z" fill="#8C243B"/>
<path fill-rule="evenodd" clip-rule="evenodd" d="M495.93 847.565C550.9 821.218 605.869 794.791 660.758 768.444C715.646 742.017 770.616 715.833 825.504 689.486C825.504 666.149 825.504 642.811 825.504 619.554C770.616 637.851 715.646 655.984 660.758 674.361C605.869 692.739 550.9 711.035 495.93 729.413C495.93 768.77 495.93 808.126 495.93 847.565Z" fill="#D14FDE"/>
<path fill-rule="evenodd" clip-rule="evenodd" d="M495.93 650.617C550.9 637.607 605.869 624.677 660.758 611.667C715.646 598.738 770.616 585.89 825.504 572.96C825.504 549.623 825.504 526.285 825.504 503.029C770.616 507.908 715.646 512.705 660.758 517.584C605.869 522.463 550.9 527.423 495.93 532.384C495.93 571.822 495.93 611.179 495.93 650.617Z" fill="#FFD900"/>
<path fill-rule="evenodd" clip-rule="evenodd" d="M495.93 453.751C550.9 454.157 605.869 454.645 660.758 455.052C715.646 455.458 770.616 456.028 825.504 456.597C825.504 433.341 825.504 410.084 825.504 386.828C770.616 378.208 715.646 369.589 660.758 361.132C605.788 352.675 550.819 344.137 495.93 335.68C495.93 375.037 495.93 414.394 495.93 453.751Z" fill="#FF4A0D"/>
<path fill-rule="evenodd" clip-rule="evenodd" d="M495.93 256.803C550.9 270.708 605.869 284.613 660.758 298.518C715.646 312.424 770.616 326.329 825.504 340.152C825.504 316.896 825.504 293.639 825.504 270.383C770.616 248.428 715.646 226.472 660.758 204.598C605.869 182.643 550.9 160.688 495.93 138.814C495.93 178.089 495.93 217.446 495.93 256.803Z" fill="#2ED4FC"/>
<path fill-rule="evenodd" clip-rule="evenodd" d="M495.93 60.0187C550.9 87.3409 605.87 114.663 660.758 141.904C715.646 169.145 770.616 196.467 825.504 223.789C825.504 200.452 825.7 177.114 825.7 153.857C770.812 118.485 715.646 83.1124 660.758 47.8213C605.87 12.5301 550.9 -22.8424 495.93 -58.2148C495.93 -18.7766 495.93 20.5804 495.93 60.0187Z" fill="#A8C714"/>
<path fill-rule="evenodd" clip-rule="evenodd" d="M495.93 -136.848C550.9 -96.1897 605.869 -55.3691 660.758 -14.711C715.646 25.947 770.616 66.7677 825.504 107.426C825.504 84.1693 825.504 60.9129 825.504 37.6565C770.616 -11.0518 715.646 -59.8415 660.758 -108.55C605.869 -157.258 550.9 -206.129 495.93 -255C495.93 -215.562 495.93 -176.205 495.93 -136.848Z" fill="#BF294A"/>
<path fill-rule="evenodd" clip-rule="evenodd" d="M495.803 847.642H-33V729.969H495.803V847.642Z" fill="#9940A1"/>
<path fill-rule="evenodd" clip-rule="evenodd" d="M495.803 650.067H-33V532.394H495.803V650.067Z" fill="#B89E08"/>
<path fill-rule="evenodd" clip-rule="evenodd" d="M495.803 453.945H-33V336.272H495.803V453.945Z" fill="#B83B12"/>
<path fill-rule="evenodd" clip-rule="evenodd" d="M495.803 256.37H-33V138.697H495.803V256.37Z" fill="#2699B5"/>
<path fill-rule="evenodd" clip-rule="evenodd" d="M495.803 60.2481H-33V-57.4252H495.803V60.2481Z" fill="#7D9117"/>
<path fill-rule="evenodd" clip-rule="evenodd" d="M687.104 4.88598C733.211 39.0387 779.317 73.2728 825.423 107.507C825.423 84.2505 825.423 60.9941 825.423 37.7377C779.317 -3.16429 733.211 -44.0663 687.104 -85.0496C687.104 -55.1253 687.104 -25.1197 687.104 4.88598Z" fill="#BD294A"/>
<path fill-rule="evenodd" clip-rule="evenodd" d="M691.577 8.13903C736.219 41.2347 780.862 74.3303 825.423 107.426C825.423 84.1696 825.423 60.9131 825.423 37.6567C780.781 -1.94418 736.138 -41.5451 691.577 -81.146C691.577 -51.3843 691.577 -21.6227 691.577 8.13903Z" fill="#BA294A"/>
<path fill-rule="evenodd" clip-rule="evenodd" d="M696.049 11.4726C739.147 43.4298 782.325 75.4684 825.423 107.426C825.423 84.1692 825.423 60.9128 825.423 37.6564C782.325 -0.643463 739.147 -38.862 696.049 -77.1619C696.049 -47.6441 696.049 -18.0451 696.049 11.4726Z" fill="#B8264A"/>
<path fill-rule="evenodd" clip-rule="evenodd" d="M700.521 14.8067C742.155 45.7069 783.789 76.607 825.423 107.426C825.423 84.1694 825.423 60.9129 825.423 37.6565C783.789 0.739044 742.155 -36.2598 700.521 -73.1772C700.521 -43.9035 700.521 -14.5484 700.521 14.8067Z" fill="#B52647"/>
<path fill-rule="evenodd" clip-rule="evenodd" d="M704.994 18.1408C745.164 47.9025 785.334 77.7455 825.423 107.426C825.423 84.1695 825.423 60.9131 825.423 37.6567C785.253 2.04024 745.083 -33.5762 704.994 -69.2739C704.994 -40.0815 704.994 -10.9703 704.994 18.1408Z" fill="#B32647"/>
<path fill-rule="evenodd" clip-rule="evenodd" d="M709.466 21.4747C748.091 50.0979 786.798 78.8025 825.423 107.507C825.423 84.2507 825.423 60.9943 825.423 37.7379C786.798 3.42251 748.091 -30.8929 709.466 -65.2083C709.466 -36.341 709.466 -7.47384 709.466 21.4747Z" fill="#B02645"/>
<path fill-rule="evenodd" clip-rule="evenodd" d="M713.938 24.7272C751.1 52.2934 788.261 79.8595 825.423 107.426C825.423 84.1693 825.423 60.9128 825.423 37.6565C788.261 4.64214 751.1 -28.2909 713.938 -61.3052C713.938 -32.6006 713.938 -3.89602 713.938 24.7272Z" fill="#AD2645"/>
<path fill-rule="evenodd" clip-rule="evenodd" d="M718.411 28.0613C754.109 54.489 789.807 80.9981 825.504 107.426C825.504 84.1694 825.504 60.913 825.504 37.6566C789.807 6.02464 754.109 -25.6886 718.411 -57.3206C718.411 -28.8599 718.411 -0.399315 718.411 28.0613Z" fill="#AB2645"/>
<path fill-rule="evenodd" clip-rule="evenodd" d="M722.884 31.3952C757.036 56.7658 791.27 82.1364 825.504 107.426C825.504 84.1693 825.504 60.9128 825.504 37.6565C791.352 7.32557 757.118 -23.0053 722.884 -53.3362C722.884 -25.1195 722.884 3.09718 722.884 31.3952Z" fill="#A82645"/>
<path fill-rule="evenodd" clip-rule="evenodd" d="M727.356 34.7292C760.045 58.9614 792.734 83.2749 825.504 107.507C825.504 84.2507 825.504 60.9943 825.504 37.7379C792.815 8.70811 760.126 -20.3217 727.356 -49.3516C727.356 -21.3788 727.356 6.6752 727.356 34.7292Z" fill="#A62642"/>
<path fill-rule="evenodd" clip-rule="evenodd" d="M731.828 37.9818C763.054 61.1569 794.279 84.2506 825.504 107.426C825.504 84.1693 825.504 60.9129 825.504 37.6565C794.279 9.92773 763.054 -17.7197 731.828 -45.4485C731.828 -17.6384 731.828 10.1717 731.828 37.9818Z" fill="#A32642"/>
<path fill-rule="evenodd" clip-rule="evenodd" d="M736.301 41.3159C766.062 63.3525 795.743 85.3892 825.504 107.426C825.504 84.1695 825.504 60.913 825.504 37.6566C795.824 11.3102 766.062 -15.1175 736.301 -41.4639C736.301 -13.8977 736.301 13.7497 736.301 41.3159Z" fill="#A12642"/>
<path fill-rule="evenodd" clip-rule="evenodd" d="M740.773 44.6498C768.99 65.5481 797.206 86.5276 825.504 107.426C825.504 84.1695 825.504 60.913 825.504 37.6566C797.288 12.6113 769.071 -12.434 740.773 -37.4794C740.773 -10.1572 740.773 17.2463 740.773 44.6498Z" fill="#9E2640"/>
<path fill-rule="evenodd" clip-rule="evenodd" d="M745.245 47.9839C771.998 67.825 798.751 87.6662 825.504 107.507C825.504 84.2509 825.504 60.9945 825.504 37.7381C798.751 13.9938 771.998 -9.75046 745.245 -33.4948C745.245 -6.33519 745.245 20.8244 745.245 47.9839Z" fill="#9C2640"/>
<path fill-rule="evenodd" clip-rule="evenodd" d="M749.718 51.3174C775.007 70.0201 800.215 88.8041 825.504 107.507C825.504 84.2504 825.504 60.994 825.504 37.7376C800.215 15.2944 775.007 -7.06751 749.718 -29.5107C749.718 -2.59513 749.718 24.3205 749.718 51.3174Z" fill="#992440"/>
<path fill-rule="evenodd" clip-rule="evenodd" d="M754.19 54.5705C777.934 72.2161 801.76 89.8616 825.504 107.426C825.504 84.1695 825.504 60.9131 825.504 37.6567C801.76 16.5958 778.016 -4.54632 754.19 -25.6072C754.19 1.14581 754.19 27.8988 754.19 54.5705Z" fill="#962440"/>
<path fill-rule="evenodd" clip-rule="evenodd" d="M758.663 57.9044C780.943 74.4116 803.224 90.9188 825.504 107.426C825.504 84.1695 825.504 60.9131 825.504 37.6567C803.224 17.8969 780.943 -1.86288 758.663 -21.6227C758.663 4.88635 758.663 31.3954 758.663 57.9044Z" fill="#94243D"/>
<path fill-rule="evenodd" clip-rule="evenodd" d="M763.135 61.2381C783.952 76.6882 804.688 92.057 825.504 107.426C825.504 84.1693 825.504 60.9129 825.504 37.6565C804.688 19.1977 783.952 0.739004 763.135 -17.6384C763.135 8.62666 763.135 34.8917 763.135 61.2381Z" fill="#91243D"/>
<path fill-rule="evenodd" clip-rule="evenodd" d="M767.607 64.572C786.879 78.8836 806.232 93.1953 825.504 107.507C825.504 84.2505 825.504 60.9941 825.504 37.7377C806.232 20.58 786.879 3.50364 767.607 -13.6541C767.607 12.3671 767.607 38.4696 767.607 64.572Z" fill="#8F243D"/>
<path fill-rule="evenodd" clip-rule="evenodd" d="M772.08 67.8249C789.888 80.9981 807.696 94.2527 825.504 107.426C825.504 84.1695 825.504 60.913 825.504 37.6566C807.696 21.8813 789.888 6.0247 772.08 -9.75061C772.08 16.1079 772.08 41.9664 772.08 67.8249Z" fill="#8C243D"/>
<path fill-rule="evenodd" clip-rule="evenodd" d="M776.552 71.1586C792.897 83.2747 809.16 95.3908 825.505 107.426C825.505 84.1692 825.505 60.9128 825.505 37.6564C809.16 23.1821 792.897 8.7079 776.552 -5.76636V71.1586Z" fill="#8C243B"/>
<path fill-rule="evenodd" clip-rule="evenodd" d="M682.632 757.873C730.202 735.023 777.853 712.336 825.423 689.486C825.423 666.149 825.423 642.811 825.423 619.554C777.853 635.411 730.202 651.186 682.632 667.043V757.873Z" fill="#D14FDE"/>
<path fill-rule="evenodd" clip-rule="evenodd" d="M687.104 755.759C733.211 733.641 779.317 711.604 825.423 689.486C825.423 666.149 825.423 642.811 825.423 619.554C779.317 634.923 733.211 650.211 687.104 665.579C687.104 695.585 687.104 725.672 687.104 755.759Z" fill="#CF4FDB"/>
<path fill-rule="evenodd" clip-rule="evenodd" d="M691.577 753.563C736.219 732.177 780.862 710.872 825.423 689.405C825.423 666.067 825.423 642.729 825.423 619.473C780.781 634.354 736.138 649.072 691.577 663.953C691.577 693.877 691.577 723.72 691.577 753.563Z" fill="#CC4FD9"/>
<path fill-rule="evenodd" clip-rule="evenodd" d="M696.049 751.449C739.147 730.714 782.325 710.141 825.423 689.486C825.423 666.149 825.423 642.811 825.423 619.554C782.325 633.947 739.147 648.178 696.049 662.571C696.049 692.17 696.049 721.85 696.049 751.449Z" fill="#C94FD6"/>
<path fill-rule="evenodd" clip-rule="evenodd" d="M700.521 749.335C742.155 729.331 783.789 709.49 825.423 689.486C825.423 666.149 825.423 642.811 825.423 619.554C783.789 633.459 742.155 647.202 700.521 661.107C700.521 690.462 700.521 719.899 700.521 749.335Z" fill="#C74DD1"/>
<path fill-rule="evenodd" clip-rule="evenodd" d="M704.994 747.139C745.164 727.867 785.334 708.677 825.423 689.405C825.423 666.067 825.423 642.729 825.423 619.473C785.253 632.89 745.083 646.145 704.994 659.48C704.994 688.835 704.994 717.947 704.994 747.139Z" fill="#C44DCF"/>
<path fill-rule="evenodd" clip-rule="evenodd" d="M709.466 745.025C748.091 726.485 786.798 708.026 825.423 689.486C825.423 666.149 825.423 642.811 825.423 619.554C786.798 632.402 748.091 645.25 709.466 658.098C709.466 687.128 709.466 716.077 709.466 745.025Z" fill="#C24ACC"/>
<path fill-rule="evenodd" clip-rule="evenodd" d="M713.938 742.911C751.1 725.103 788.261 707.294 825.423 689.486C825.423 666.149 825.423 642.811 825.423 619.554C788.261 631.914 751.1 644.275 713.938 656.635C713.938 685.421 713.938 714.125 713.938 742.911Z" fill="#BF4AC9"/>
<path fill-rule="evenodd" clip-rule="evenodd" d="M718.411 740.715C754.109 723.639 789.807 706.562 825.504 689.405C825.504 666.067 825.504 642.729 825.504 619.473C789.807 631.345 754.109 643.136 718.411 655.089C718.411 683.713 718.411 712.173 718.411 740.715Z" fill="#BD4AC7"/>
<path fill-rule="evenodd" clip-rule="evenodd" d="M722.884 738.601C757.036 722.175 791.27 705.831 825.504 689.486C825.504 666.149 825.504 642.811 825.504 619.554C791.352 630.939 757.118 642.242 722.884 653.626C722.884 682.005 722.884 710.303 722.884 738.601Z" fill="#BA4AC4"/>
<path fill-rule="evenodd" clip-rule="evenodd" d="M727.356 736.487C760.045 720.793 792.734 705.18 825.504 689.486C825.504 666.149 825.504 642.811 825.504 619.554C792.815 630.451 760.126 641.266 727.356 652.162C727.356 680.298 727.356 708.352 727.356 736.487Z" fill="#B547C2"/>
<path fill-rule="evenodd" clip-rule="evenodd" d="M731.828 734.291C763.054 719.329 794.279 704.448 825.504 689.405C825.504 666.067 825.504 642.729 825.504 619.473C794.279 629.881 763.054 640.208 731.828 650.617C731.828 678.59 731.828 706.481 731.828 734.291Z" fill="#B547BF"/>
<path fill-rule="evenodd" clip-rule="evenodd" d="M736.301 732.177C766.062 717.947 795.743 703.717 825.504 689.486C825.504 666.149 825.504 642.811 825.504 619.554C795.824 629.475 766.062 639.314 736.301 649.235C736.301 676.882 736.301 704.53 736.301 732.177Z" fill="#B045BA"/>
<path fill-rule="evenodd" clip-rule="evenodd" d="M740.773 730.063C768.99 716.565 797.206 703.066 825.504 689.486C825.504 666.149 825.504 642.811 825.504 619.554C797.288 628.987 769.071 638.339 740.773 647.69C740.773 675.175 740.773 702.578 740.773 730.063Z" fill="#AD45B8"/>
<path fill-rule="evenodd" clip-rule="evenodd" d="M745.245 727.867C771.998 715.019 798.751 702.253 825.504 689.405C825.504 666.067 825.504 642.729 825.504 619.473C798.751 628.418 771.998 637.281 745.245 646.145C745.245 673.467 745.245 700.708 745.245 727.867Z" fill="#AB45B5"/>
<path fill-rule="evenodd" clip-rule="evenodd" d="M749.718 725.753C775.007 713.637 800.215 701.602 825.504 689.486C825.504 666.149 825.504 642.811 825.504 619.554C800.215 628.011 775.007 636.306 749.718 644.762C749.718 671.759 749.718 698.756 749.718 725.753Z" fill="#A845B3"/>
<path fill-rule="evenodd" clip-rule="evenodd" d="M754.19 723.639C777.934 712.255 801.76 700.871 825.504 689.486C825.504 666.149 825.504 642.811 825.504 619.554C801.76 627.442 778.016 635.33 754.19 643.299C754.19 670.052 754.19 696.805 754.19 723.639Z" fill="#A642B0"/>
<path fill-rule="evenodd" clip-rule="evenodd" d="M758.663 721.443C780.943 710.791 803.224 700.138 825.504 689.405C825.504 666.067 825.504 642.729 825.504 619.473C803.224 626.873 780.943 634.272 758.663 641.672C758.663 668.344 758.663 694.934 758.663 721.443Z" fill="#A342AD"/>
<path fill-rule="evenodd" clip-rule="evenodd" d="M763.135 719.329C783.952 709.409 804.688 699.407 825.504 689.486C825.504 666.149 825.504 642.811 825.504 619.554C804.688 626.466 783.952 633.378 763.135 640.29C763.135 666.636 763.135 692.983 763.135 719.329Z" fill="#A140AB"/>
<path fill-rule="evenodd" clip-rule="evenodd" d="M767.607 717.215C786.879 707.945 806.232 698.756 825.504 689.486C825.504 666.149 825.504 642.811 825.504 619.554C806.232 625.978 786.879 632.402 767.607 638.826C767.607 664.929 767.607 691.031 767.607 717.215Z" fill="#9E40A6"/>
<path fill-rule="evenodd" clip-rule="evenodd" d="M772.08 715.019C789.888 706.481 807.696 697.943 825.504 689.405C825.504 666.067 825.504 642.729 825.504 619.473C807.696 625.409 789.888 631.345 772.08 637.2C772.08 663.221 772.08 689.161 772.08 715.019Z" fill="#9C40A3"/>
<path fill-rule="evenodd" clip-rule="evenodd" d="M776.552 712.905C792.897 705.099 809.16 697.293 825.505 689.486C825.505 666.149 825.505 642.811 825.505 619.554C809.16 625.003 792.897 630.451 776.552 635.818V712.905Z" fill="#9940A1"/>
<path fill-rule="evenodd" clip-rule="evenodd" d="M682.632 606.543C730.202 595.322 777.853 584.182 825.423 573.041C825.423 549.704 825.423 526.366 825.423 503.109C777.853 507.338 730.202 511.485 682.632 515.713V606.543Z" fill="#FFD900"/>
<path fill-rule="evenodd" clip-rule="evenodd" d="M687.104 605.486C733.211 594.671 779.317 583.856 825.423 573.041C825.423 549.704 825.423 526.366 825.423 503.109C779.317 507.175 733.211 511.241 687.104 515.307C687.104 545.394 687.104 575.481 687.104 605.486Z" fill="#FCD600"/>
<path fill-rule="evenodd" clip-rule="evenodd" d="M691.577 604.43C736.219 593.94 780.862 583.45 825.423 572.96C825.423 549.623 825.423 526.285 825.423 503.029C780.781 506.932 736.138 510.835 691.577 514.819C691.577 544.825 691.577 574.668 691.577 604.43Z" fill="#F7D400"/>
<path fill-rule="evenodd" clip-rule="evenodd" d="M696.049 603.453C739.147 593.289 782.325 583.206 825.423 573.041C825.423 549.704 825.423 526.366 825.423 503.109C782.325 506.931 739.147 510.672 696.049 514.494C696.049 544.174 696.049 573.773 696.049 603.453Z" fill="#F5D100"/>
<path fill-rule="evenodd" clip-rule="evenodd" d="M700.521 602.396C742.155 592.557 783.789 582.88 825.423 573.041C825.423 549.704 825.423 526.366 825.423 503.109C783.789 506.769 742.155 510.428 700.521 514.168C700.521 543.523 700.521 572.96 700.521 602.396Z" fill="#F2CF03"/>
<path fill-rule="evenodd" clip-rule="evenodd" d="M704.994 601.339C745.164 591.907 785.334 582.474 825.423 573.041C825.423 549.704 825.423 526.366 825.423 503.109C785.253 506.687 745.083 510.184 704.994 513.762C704.994 542.954 704.994 572.147 704.994 601.339Z" fill="#EDCC03"/>
<path fill-rule="evenodd" clip-rule="evenodd" d="M709.466 600.282C748.091 591.175 786.798 582.149 825.423 573.041C825.423 549.704 825.423 526.366 825.423 503.109C786.798 506.525 748.091 509.94 709.466 513.355C709.466 542.304 709.466 571.334 709.466 600.282Z" fill="#EBC703"/>
<path fill-rule="evenodd" clip-rule="evenodd" d="M713.938 599.225C751.1 590.443 788.261 581.742 825.423 573.041C825.423 549.704 825.423 526.366 825.423 503.109C788.261 506.362 751.1 509.615 713.938 512.949C713.938 541.735 713.938 570.439 713.938 599.225Z" fill="#E8C403"/>
<path fill-rule="evenodd" clip-rule="evenodd" d="M718.411 598.168C754.109 589.792 789.807 581.417 825.504 573.041C825.504 549.704 825.504 526.366 825.504 503.109C789.807 506.281 754.109 509.371 718.411 512.542C718.411 541.084 718.411 569.626 718.411 598.168Z" fill="#E3C203"/>
<path fill-rule="evenodd" clip-rule="evenodd" d="M722.884 597.111C757.036 589.06 791.27 581.092 825.504 573.041C825.504 549.704 825.504 526.366 825.504 503.109C791.352 506.118 757.118 509.127 722.884 512.135C722.884 540.515 722.884 568.813 722.884 597.111Z" fill="#E0BF03"/>
<path fill-rule="evenodd" clip-rule="evenodd" d="M727.356 596.054C760.045 588.329 792.734 580.685 825.504 573.041C825.504 549.704 825.504 526.366 825.504 503.109C792.815 506.037 760.126 508.883 727.356 511.729C727.356 539.864 727.356 568 727.356 596.054Z" fill="#DEBD05"/>
<path fill-rule="evenodd" clip-rule="evenodd" d="M731.828 594.997C763.054 587.678 794.279 580.36 825.504 573.041C825.504 549.704 825.504 526.366 825.504 503.109C794.279 505.874 763.054 508.639 731.828 511.404C731.828 539.295 731.828 567.186 731.828 594.997Z" fill="#D9BA05"/>
<path fill-rule="evenodd" clip-rule="evenodd" d="M736.301 593.939C766.062 586.946 795.743 579.953 825.504 573.041C825.504 549.704 825.504 526.366 825.504 503.109C795.824 505.712 766.062 508.314 736.301 510.997C736.301 538.645 736.301 566.292 736.301 593.939Z" fill="#D6B805"/>
<path fill-rule="evenodd" clip-rule="evenodd" d="M740.773 592.883C768.99 586.215 797.206 579.628 825.504 572.96C825.504 549.623 825.504 526.285 825.504 503.029C797.288 505.549 769.071 507.989 740.773 510.51C740.773 538.076 740.773 565.479 740.773 592.883Z" fill="#D1B505"/>
<path fill-rule="evenodd" clip-rule="evenodd" d="M745.245 591.907C771.998 585.645 798.751 579.384 825.504 573.041C825.504 549.704 825.504 526.366 825.504 503.109C798.751 505.468 771.998 507.826 745.245 510.184C745.245 537.425 745.245 564.666 745.245 591.907Z" fill="#CFB005"/>
<path fill-rule="evenodd" clip-rule="evenodd" d="M749.718 590.849C775.007 584.913 800.215 578.977 825.504 573.041C825.504 549.704 825.504 526.366 825.504 503.109C800.215 505.305 775.007 507.582 749.718 509.777C749.718 536.856 749.718 563.853 749.718 590.849Z" fill="#CCAD05"/>
<path fill-rule="evenodd" clip-rule="evenodd" d="M754.19 589.792C777.934 584.182 801.76 578.652 825.504 573.041C825.504 549.704 825.504 526.366 825.504 503.109C801.76 505.224 778.016 507.257 754.19 509.371C754.19 536.205 754.19 562.958 754.19 589.792Z" fill="#C7AB05"/>
<path fill-rule="evenodd" clip-rule="evenodd" d="M758.663 588.735C780.943 583.531 803.224 578.245 825.504 573.041C825.504 549.704 825.504 526.366 825.504 503.109C803.224 505.061 780.943 507.013 758.663 508.964C758.663 535.636 758.663 562.145 758.663 588.735Z" fill="#C4A805"/>
<path fill-rule="evenodd" clip-rule="evenodd" d="M763.135 587.678C783.952 582.799 804.688 577.92 825.504 573.041C825.504 549.704 825.504 526.366 825.504 503.109C804.688 504.98 783.952 506.769 763.135 508.639C763.135 534.985 763.135 561.332 763.135 587.678Z" fill="#C2A608"/>
<path fill-rule="evenodd" clip-rule="evenodd" d="M767.607 586.621C786.879 582.067 806.232 577.595 825.504 573.041C825.504 549.704 825.504 526.366 825.504 503.109C806.232 504.817 786.879 506.525 767.607 508.232C767.607 534.335 767.607 560.519 767.607 586.621Z" fill="#BFA308"/>
<path fill-rule="evenodd" clip-rule="evenodd" d="M772.08 585.564C789.888 581.417 807.696 577.188 825.504 573.041C825.504 549.704 825.504 526.366 825.504 503.109C807.696 504.654 789.888 506.281 772.08 507.826C772.08 533.766 772.08 559.705 772.08 585.564Z" fill="#BAA108"/>
<path fill-rule="evenodd" clip-rule="evenodd" d="M776.552 584.507C792.897 580.685 809.249 576.863 825.593 573.041C825.593 549.704 825.593 526.304 825.593 503.048C809.249 504.512 792.897 505.956 776.552 507.419V584.507Z" fill="#B89E08"/>
<path fill-rule="evenodd" clip-rule="evenodd" d="M682.632 455.215C730.202 455.621 777.853 456.109 825.423 456.597C825.423 433.341 825.423 410.084 825.423 386.828C777.853 379.347 730.202 371.947 682.632 364.547V455.215Z" fill="#FF4A0D"/>
<path fill-rule="evenodd" clip-rule="evenodd" d="M687.104 455.296C733.211 455.702 779.317 456.19 825.423 456.597C825.423 433.341 825.423 410.084 825.423 386.828C779.317 379.591 733.211 372.354 687.104 365.198C687.104 395.285 687.104 425.29 687.104 455.296Z" fill="#FC4A0D"/>
<path fill-rule="evenodd" clip-rule="evenodd" d="M691.577 455.377C736.219 455.784 780.862 456.19 825.423 456.678C825.423 433.422 825.423 410.166 825.423 386.909C780.781 379.916 736.138 372.923 691.577 366.011C691.577 395.691 691.577 425.534 691.577 455.377Z" fill="#F74A0D"/>
<path fill-rule="evenodd" clip-rule="evenodd" d="M696.049 455.377C739.147 455.784 782.325 456.19 825.423 456.597C825.423 433.341 825.423 410.084 825.423 386.828C782.325 380.079 739.147 373.329 696.049 366.661C696.049 396.179 696.049 425.778 696.049 455.377Z" fill="#F5470D"/>
<path fill-rule="evenodd" clip-rule="evenodd" d="M700.521 455.459C742.155 455.784 783.789 456.272 825.423 456.678C825.423 433.422 825.423 410.166 825.423 386.909C783.789 380.404 742.155 373.899 700.521 367.393C700.521 396.667 700.521 426.022 700.521 455.459Z" fill="#F2470D"/>
<path fill-rule="evenodd" clip-rule="evenodd" d="M704.994 455.459C745.164 455.784 785.334 456.19 825.423 456.597C825.423 433.341 825.423 410.084 825.423 386.828C785.253 380.566 745.083 374.224 704.994 368.044C704.994 397.155 704.994 426.347 704.994 455.459Z" fill="#ED450D"/>
<path fill-rule="evenodd" clip-rule="evenodd" d="M709.466 455.54C748.091 455.865 786.798 456.272 825.423 456.678C825.423 433.422 825.423 410.166 825.423 386.909C786.798 380.892 748.091 374.793 709.466 368.776C709.466 397.643 709.466 426.591 709.466 455.54Z" fill="#EB450D"/>
<path fill-rule="evenodd" clip-rule="evenodd" d="M713.938 455.54C751.1 455.865 788.261 456.272 825.423 456.597C825.423 433.341 825.423 410.084 825.423 386.828C788.261 380.973 751.1 375.2 713.938 369.426C713.938 398.131 713.938 426.835 713.938 455.54Z" fill="#E8450D"/>
<path fill-rule="evenodd" clip-rule="evenodd" d="M718.411 455.621C754.109 455.946 789.807 456.272 825.504 456.678C825.504 433.422 825.504 410.165 825.504 386.909C789.807 381.298 754.109 375.769 718.411 370.158C718.411 398.618 718.411 427.079 718.411 455.621Z" fill="#E3450F"/>
<path fill-rule="evenodd" clip-rule="evenodd" d="M722.884 455.621C757.036 455.946 791.27 456.272 825.504 456.597C825.504 433.34 825.504 410.084 825.504 386.828C791.352 381.461 757.118 376.094 722.884 370.808C722.884 399.106 722.884 427.323 722.884 455.621Z" fill="#E0450F"/>
<path fill-rule="evenodd" clip-rule="evenodd" d="M727.356 455.702C760.045 456.028 792.734 456.353 825.504 456.678C825.504 433.422 825.504 410.165 825.504 386.909C792.815 381.786 760.126 376.663 727.356 371.622C727.356 399.594 727.356 427.648 727.356 455.702Z" fill="#DE420F"/>
<path fill-rule="evenodd" clip-rule="evenodd" d="M731.828 455.702C763.054 455.946 794.279 456.272 825.504 456.597C825.504 433.34 825.504 410.084 825.504 386.828C794.279 381.949 763.054 377.07 731.828 372.191C731.828 400.001 731.828 427.892 731.828 455.702Z" fill="#D9420F"/>
<path fill-rule="evenodd" clip-rule="evenodd" d="M736.301 455.784C766.062 456.028 795.743 456.353 825.504 456.678C825.504 433.422 825.504 410.165 825.504 386.909C795.824 382.274 766.062 377.639 736.301 373.004C736.301 400.489 736.301 428.136 736.301 455.784Z" fill="#D6400F"/>
<path fill-rule="evenodd" clip-rule="evenodd" d="M740.773 455.784C768.99 456.028 797.206 456.353 825.504 456.597C825.504 433.34 825.504 410.084 825.504 386.828C797.288 382.436 769.071 377.964 740.773 373.573C740.773 400.977 740.773 428.38 740.773 455.784Z" fill="#D1400F"/>
<path fill-rule="evenodd" clip-rule="evenodd" d="M745.245 455.865C771.998 456.109 798.751 456.353 825.504 456.678C825.504 433.422 825.504 410.165 825.504 386.909C798.751 382.681 771.998 378.533 745.245 374.386C745.245 401.465 745.245 428.624 745.245 455.865Z" fill="#CF400F"/>
<path fill-rule="evenodd" clip-rule="evenodd" d="M749.718 455.865C775.007 456.109 800.215 456.353 825.504 456.597C825.504 433.341 825.504 410.084 825.504 386.828C800.215 382.843 775.007 378.94 749.718 374.956C749.718 401.953 749.718 428.95 749.718 455.865Z" fill="#CC400F"/>
<path fill-rule="evenodd" clip-rule="evenodd" d="M754.19 455.946C777.934 456.19 801.76 456.434 825.504 456.678C825.504 433.422 825.504 410.165 825.504 386.909C801.76 383.169 778.016 379.428 754.19 375.769C754.19 402.44 754.19 429.193 754.19 455.946Z" fill="#C7400F"/>
<path fill-rule="evenodd" clip-rule="evenodd" d="M758.663 455.946C780.943 456.19 803.224 456.353 825.504 456.597C825.504 433.341 825.504 410.084 825.504 386.828C803.224 383.331 780.943 379.835 758.663 376.419C758.663 402.928 758.663 429.437 758.663 455.946Z" fill="#C43D0F"/>
<path fill-rule="evenodd" clip-rule="evenodd" d="M763.135 456.028C783.952 456.19 804.688 456.434 825.504 456.678C825.504 433.422 825.504 410.165 825.504 386.909C804.688 383.656 783.952 380.404 763.135 377.151C763.135 403.416 763.135 429.681 763.135 456.028Z" fill="#C23D0F"/>
<path fill-rule="evenodd" clip-rule="evenodd" d="M767.607 456.028C786.879 456.19 806.232 456.434 825.504 456.597C825.504 433.341 825.504 410.084 825.504 386.828C806.232 383.819 786.879 380.81 767.607 377.802C767.607 403.823 767.607 429.925 767.607 456.028Z" fill="#BF3D12"/>
<path fill-rule="evenodd" clip-rule="evenodd" d="M772.08 456.109C789.888 456.272 807.696 456.434 825.504 456.678C825.504 433.422 825.504 410.165 825.504 386.909C807.696 384.144 789.888 381.298 772.08 378.534C772.08 404.311 772.08 430.25 772.08 456.109Z" fill="#BA3D12"/>
<path fill-rule="evenodd" clip-rule="evenodd" d="M776.552 456.109C792.897 456.272 809.16 456.434 825.505 456.597C825.505 433.341 825.505 410.084 825.505 386.828C809.16 384.307 792.897 381.705 776.552 379.184V456.109Z" fill="#B83B12"/>
<path fill-rule="evenodd" clip-rule="evenodd" d="M682.632 304.048C730.202 316.083 777.853 328.117 825.423 340.152C825.423 316.896 825.423 293.639 825.423 270.383C777.853 251.355 730.202 232.327 682.632 213.299V304.048Z" fill="#2ED4FC"/>
<path fill-rule="evenodd" clip-rule="evenodd" d="M687.104 305.186C733.211 316.815 779.317 328.524 825.423 340.152C825.423 316.896 825.423 293.639 825.423 270.383C779.317 251.924 733.211 233.547 687.104 215.088C687.104 245.175 687.104 275.181 687.104 305.186Z" fill="#2ED1FA"/>
<path fill-rule="evenodd" clip-rule="evenodd" d="M691.577 306.325C736.219 317.628 780.862 328.931 825.423 340.152C825.423 316.896 825.423 293.64 825.423 270.383C780.781 252.575 736.138 234.767 691.577 216.877C691.577 246.72 691.577 276.563 691.577 306.325Z" fill="#2BCCF5"/>
<path fill-rule="evenodd" clip-rule="evenodd" d="M696.049 307.463C739.147 318.36 782.325 329.256 825.423 340.234C825.423 316.977 825.423 293.721 825.423 270.464C782.325 253.225 739.147 235.986 696.049 218.747C696.049 248.265 696.049 277.864 696.049 307.463Z" fill="#2BCCF2"/>
<path fill-rule="evenodd" clip-rule="evenodd" d="M700.521 308.602C742.155 319.173 783.789 329.663 825.423 340.234C825.423 316.977 825.423 293.721 825.423 270.464C783.789 253.795 742.155 237.206 700.521 220.536C700.521 249.891 700.521 279.247 700.521 308.602Z" fill="#2BC7ED"/>
<path fill-rule="evenodd" clip-rule="evenodd" d="M704.994 309.74C745.164 319.905 785.334 330.069 825.423 340.234C825.423 316.977 825.423 293.721 825.423 270.465C785.253 254.445 745.083 238.345 704.994 222.325C704.994 251.437 704.994 280.548 704.994 309.74Z" fill="#2BC4EB"/>
<path fill-rule="evenodd" clip-rule="evenodd" d="M709.466 310.878C748.091 320.636 786.798 330.476 825.423 340.233C825.423 316.977 825.423 293.721 825.423 270.464C786.798 255.014 748.091 239.564 709.466 224.114C709.466 252.981 709.466 281.93 709.466 310.878Z" fill="#2BC2E8"/>
<path fill-rule="evenodd" clip-rule="evenodd" d="M713.938 312.017C751.1 321.45 788.261 330.801 825.423 340.234C825.423 316.977 825.423 293.721 825.423 270.464C788.261 255.584 751.1 240.784 713.938 225.903C713.938 254.526 713.938 283.231 713.938 312.017Z" fill="#2BBFE3"/>
<path fill-rule="evenodd" clip-rule="evenodd" d="M718.411 313.074C754.109 322.1 789.807 331.126 825.504 340.152C825.504 316.896 825.504 293.639 825.504 270.383C789.807 256.153 754.109 241.841 718.411 227.611C718.411 256.153 718.411 284.613 718.411 313.074Z" fill="#2BBDE0"/>
<path fill-rule="evenodd" clip-rule="evenodd" d="M722.884 314.213C757.036 322.832 791.27 331.533 825.504 340.152C825.504 316.896 825.504 293.64 825.504 270.383C791.352 256.722 757.118 243.061 722.884 229.4C722.884 257.698 722.884 285.996 722.884 314.213Z" fill="#29BADE"/>
<path fill-rule="evenodd" clip-rule="evenodd" d="M727.356 315.351C760.045 323.645 792.734 331.858 825.504 340.152C825.504 316.896 825.504 293.639 825.504 270.383C792.815 257.291 760.126 244.281 727.356 231.189C727.356 259.243 727.356 287.297 727.356 315.351Z" fill="#29B8D9"/>
<path fill-rule="evenodd" clip-rule="evenodd" d="M731.828 316.489C763.054 324.377 794.279 332.265 825.504 340.152C825.504 316.896 825.504 293.64 825.504 270.383C794.279 257.942 763.054 245.419 731.828 232.978C731.828 260.788 731.828 288.679 731.828 316.489Z" fill="#29B5D6"/>
<path fill-rule="evenodd" clip-rule="evenodd" d="M736.301 317.628C766.062 325.109 795.743 332.671 825.504 340.152C825.504 316.896 825.504 293.64 825.504 270.383C795.824 258.511 766.062 246.639 736.301 234.767C736.301 262.414 736.301 289.98 736.301 317.628Z" fill="#29B3D4"/>
<path fill-rule="evenodd" clip-rule="evenodd" d="M1392 573L825.59 573.05L825.57 503L1392 503.301V573Z" fill="#B89E08"/>

<path fill-rule="evenodd" clip-rule="evenodd" d="M1392 689L825 689V619L1392 619V689Z" fill="#9940A1"/>
<path fill-rule="evenodd" clip-rule="evenodd" d="M740.773 318.766C768.99 325.922 797.206 333.078 825.504 340.152C825.504 316.896 825.504 293.64 825.504 270.383C797.288 259.08 769.071 247.859 740.773 236.556C740.773 263.959 740.773 291.363 740.773 318.766Z" fill="#29B0D1"/>
<path fill-rule="evenodd" clip-rule="evenodd" d="M745.245 319.905C771.998 326.654 798.751 333.403 825.504 340.234C825.504 316.977 825.504 293.721 825.504 270.464C798.751 259.812 771.998 249.078 745.245 238.426C745.245 265.504 745.245 292.745 745.245 319.905Z" fill="#29ABCC"/>
<path fill-rule="evenodd" clip-rule="evenodd" d="M749.718 321.043C775.007 327.467 800.215 333.81 825.504 340.234C825.504 316.977 825.504 293.721 825.504 270.464C800.215 260.381 775.007 250.298 749.718 240.215C749.718 267.13 749.718 294.046 749.718 321.043Z" fill="#29ABC9"/>
<path fill-rule="evenodd" clip-rule="evenodd" d="M754.19 322.182C777.934 328.199 801.76 334.216 825.504 340.234C825.504 316.977 825.504 293.721 825.504 270.465C801.76 260.951 778.016 251.437 754.19 242.004C754.19 268.676 754.19 295.429 754.19 322.182Z" fill="#29A6C7"/>
<path fill-rule="evenodd" clip-rule="evenodd" d="M758.663 323.32C780.943 328.931 803.224 334.623 825.504 340.234C825.504 316.977 825.504 293.721 825.504 270.465C803.224 261.601 780.943 252.656 758.663 243.793C758.663 270.221 758.663 296.73 758.663 323.32Z" fill="#29A3C2"/>
<path fill-rule="evenodd" clip-rule="evenodd" d="M763.135 324.377C783.952 329.662 804.688 334.867 825.504 340.152C825.504 316.896 825.504 293.639 825.504 270.383C804.688 262.089 783.952 253.794 763.135 245.5C763.135 271.765 763.135 298.112 763.135 324.377Z" fill="#29A1BF"/>
<path fill-rule="evenodd" clip-rule="evenodd" d="M767.607 325.515C786.879 330.394 806.232 335.273 825.504 340.152C825.504 316.896 825.504 293.64 825.504 270.383C806.232 262.658 786.879 254.933 767.607 247.289C767.607 273.392 767.607 299.494 767.607 325.515Z" fill="#299EBD"/>
<path fill-rule="evenodd" clip-rule="evenodd" d="M772.08 326.654C789.888 331.126 807.696 335.68 825.504 340.152C825.504 316.896 825.504 293.64 825.504 270.383C807.696 263.309 789.888 256.153 772.08 249.078C772.08 274.937 772.08 300.796 772.08 326.654Z" fill="#269CB8"/>
<path fill-rule="evenodd" clip-rule="evenodd" d="M776.552 327.792L825.505 340.152C825.505 316.896 825.505 293.64 825.505 270.383C809.16 263.878 792.897 257.373 776.552 250.867V327.792Z" fill="#2699B5"/>
</svg>
