<svg width="40" height="39" viewBox="0 0 40 39" fill="none" xmlns="http://www.w3.org/2000/svg">
<path d="M22.6531 8.74757C22.3611 9.03959 22.144 9.37856 22.001 9.74056C20.9183 9.27178 19.6153 9.47483 18.7367 10.3535C18.4103 10.6799 18.1771 11.0649 18.0369 11.4754C17.0167 11.152 15.8583 11.3904 15.0549 12.1938C14.8187 12.43 14.6323 12.697 14.4936 12.9821L12.1808 10.6693C11.0225 9.51087 9.14405 9.50433 7.9935 10.6549C6.84309 11.8053 6.8497 13.6837 8.00804 14.842L16.3306 23.1646L13.1088 22.9481C13.0865 22.9468 13.0643 22.946 13.0421 22.9461C12.2527 22.9458 11.5087 23.252 10.947 23.8082C10.9434 23.8118 10.94 23.8152 10.9364 23.8189C10.3788 24.3765 10.072 25.1138 10.0723 25.8967C10.0725 27.2767 11.0587 28.3393 12.7786 28.812C15.0043 29.4231 17.2192 29.883 19.1736 30.2888C20.6018 30.5854 21.9509 30.8655 23.0151 31.1482C23.9384 31.3939 26.7333 32.3899 26.7617 32.3999C27.1247 32.5294 27.53 32.4382 27.8024 32.1658L36.725 23.2431C37.0316 22.9365 37.1052 22.4674 36.9076 22.0818C36.5565 21.398 33.4282 15.3499 31.6562 13.5779L26.8405 8.76225C25.6818 7.60376 23.8035 7.59716 22.6531 8.74757Z" fill="white"/>
<path fill-rule="evenodd" clip-rule="evenodd" d="M22.001 9.74056C22.144 9.37856 22.3611 9.03959 22.6531 8.74757C23.8035 7.59716 25.6818 7.60376 26.8405 8.76225L31.6562 13.5779C33.4282 15.3499 36.5565 21.398 36.9076 22.0818C37.1052 22.4674 37.0316 22.9365 36.725 23.2431L27.8024 32.1658C27.53 32.4382 27.1247 32.5294 26.7617 32.3999C26.7607 32.3995 26.7562 32.3979 26.7484 32.3952C26.5377 32.3203 23.9057 31.3852 23.0151 31.1482C21.9529 30.866 20.6069 30.5865 19.1816 30.2905L19.1736 30.2888L19.1718 30.2884C17.2178 29.8827 15.0036 29.4229 12.7786 28.812C11.0587 28.3393 10.0725 27.2767 10.0723 25.8967C10.072 25.1138 10.3788 24.3765 10.9364 23.8189L10.947 23.8082C11.5087 23.252 12.2527 22.9458 13.0421 22.9461C13.0643 22.946 13.0865 22.9468 13.1088 22.9481L16.3306 23.1646L8.00804 14.842C6.8497 13.6837 6.84309 11.8053 7.9935 10.6549C9.14405 9.50433 11.0225 9.51087 12.1808 10.6693L14.4936 12.9821C14.6323 12.697 14.8187 12.43 15.0549 12.1938C15.8583 11.3904 17.0167 11.152 18.0369 11.4754C18.1771 11.0649 18.4103 10.6799 18.7367 10.3535C19.6153 9.47483 20.9183 9.27178 22.001 9.74056ZM24.0643 10.1588C23.6923 10.5308 23.699 11.1429 24.0793 11.5233L24.0795 11.5231L26.1329 13.5766C26.5226 13.9662 26.5227 14.5982 26.1329 14.988C25.7433 15.3777 25.1112 15.3775 24.7216 14.9879L21.5127 11.7791C21.1324 11.3988 20.5202 11.3923 20.1479 11.7646C19.7758 12.1367 19.7824 12.7487 20.1627 13.129L22.4505 15.4168C22.8404 15.8067 22.8402 16.4385 22.4505 16.8282C22.0609 17.2178 21.4291 17.2179 21.0392 16.828L17.8305 13.6194C17.4505 13.2393 16.8385 13.2328 16.4663 13.605C16.0942 13.9771 16.1007 14.5891 16.4808 14.9692L18.7691 17.2575C19.1588 17.6471 19.1587 18.2791 18.7691 18.6687C18.3795 19.0583 17.7475 19.0584 17.3578 18.6687L10.7695 12.0805C10.3893 11.7002 9.77711 11.6938 9.40482 12.0661C9.03259 12.4383 9.03906 13.0504 9.41936 13.4307L19.6213 23.6326C19.9153 23.9266 19.9963 24.3722 19.8243 24.7509C19.6526 25.1293 19.2637 25.3619 18.8489 25.3339L13.0141 24.9422C12.7646 24.9491 12.5302 25.0493 12.3515 25.2263C12.1711 25.4105 12.0679 25.6451 12.0682 25.8962C12.0682 26.434 12.7419 26.7321 13.3072 26.8876C15.4718 27.4818 17.6539 27.935 19.5791 28.3345L19.5879 28.3363C21.0406 28.638 22.4126 28.923 23.5279 29.2195C24.2585 29.4138 25.9346 29.9932 26.836 30.3094L34.7961 22.3494C33.683 20.2375 31.4223 16.1668 30.2447 14.9893L25.429 10.1736C25.0487 9.79321 24.4365 9.78653 24.0643 10.1588Z" fill="black"/>
</svg>
