<svg width="76" height="16" viewBox="0 0 76 16" fill="none" xmlns="http://www.w3.org/2000/svg">
<path d="M58.4358 11.7527H66.1978V10.0273H61.0819C61.7876 7.1958 66.1096 6.57641 66.1096 3.43521C66.1096 1.75401 64.963 0.515228 62.5373 0.515228C61.0378 0.515228 59.7148 0.95765 58.8327 1.40007L59.3619 2.99279C60.1558 2.59461 61.0819 2.24067 62.2286 2.24067C63.1107 2.24067 63.9486 2.63885 63.9486 3.65642C63.9486 5.95702 58.8768 6.13399 58.4358 11.7527ZM66.4184 9.00973H71.4019V11.7527H73.3866V9.00973H75.0625V7.32852H73.3866V0.515228H71.9312L66.4184 7.68246V9.00973ZM68.6676 7.41701L71.4902 3.61218C71.4902 3.92188 71.4019 4.8952 71.4019 5.78005V7.37277H70.0789C69.6819 7.37277 68.9322 7.41701 68.6676 7.41701Z" fill="#005893"/>
<path d="M2.07282 10.0715V6.57642H2.91077C3.66051 6.57642 4.27795 6.6649 4.71897 6.93035C5.16 7.19581 5.42462 7.63823 5.42462 8.3461C5.42462 9.54064 4.71897 10.0715 3.04308 10.0715H2.07282ZM0.0441026 11.7527H2.99897C6.30667 11.7527 7.49744 10.2928 7.49744 8.25762C7.49744 6.88611 6.9241 5.95702 5.90974 5.42612C5.1159 4.9837 4.10154 4.85097 2.86667 4.85097H2.07282V2.19644H6.52718L7.05641 0.559479H0V11.7527H0.0441026ZM8.86462 11.7527H10.8051L13.319 8.12489C13.8041 7.46126 14.1569 6.79763 14.3774 6.44369H14.4215C14.3774 6.93035 14.3333 7.54974 14.3333 8.16913V11.7085H16.3179V3.74492H14.3774L11.8636 7.37277C11.4226 8.03641 11.0256 8.70004 10.8051 9.05398H10.761C10.8051 8.56731 10.8492 7.94792 10.8492 7.32853V3.78916H8.86462V11.7527ZM19.7138 11.7527H21.7426V5.42612H24.1241L24.6533 3.74492H17.2882V5.42612H19.7138V11.7527ZM25.359 15.7788H27.3436V11.7527C27.7405 11.8855 28.1374 11.9297 28.5785 11.9297C31.0923 11.9297 32.7241 10.2043 32.7241 7.72671C32.7241 5.16067 31.2246 3.5237 28.3579 3.5237C27.2554 3.5237 26.1969 3.74492 25.3149 4.01037V15.7788H25.359ZM27.3436 10.0273V5.33763C27.6523 5.24915 27.9169 5.20491 28.2697 5.20491C29.7251 5.20491 30.6513 6.00127 30.6513 7.72671C30.6513 9.27519 29.9015 10.2485 28.4021 10.2485C28.0051 10.2485 27.6964 10.16 27.3436 10.0273ZM33.9149 11.7527H35.8554L38.3692 8.12489C38.8544 7.46126 39.2072 6.79763 39.4277 6.44369H39.4718C39.4277 6.93035 39.3836 7.54974 39.3836 8.16913V11.7085H41.3682V3.74492H39.4277L36.9138 7.37277C36.4728 8.03641 36.0759 8.70004 35.8554 9.05398H35.8113C35.8554 8.56731 35.8995 7.94792 35.8995 7.32853V3.78916H33.9149V11.7527ZM42.9559 11.7527H44.9846V8.43459H46.1754C46.3959 8.43459 46.6164 8.6558 46.881 9.1867L47.8954 11.7527H50.0564L48.601 8.70004C48.3364 8.16913 48.0718 7.85944 47.6749 7.72671V7.68247C48.3364 7.28429 48.4246 6.13399 48.8215 5.55885C48.9538 5.38188 49.1303 5.29339 49.3949 5.29339C49.5272 5.29339 49.7036 5.29339 49.8359 5.38188V3.65643C49.6154 3.56795 49.2185 3.5237 48.9979 3.5237C48.2923 3.5237 47.8513 3.78916 47.5426 4.23158C46.881 5.20491 46.881 6.88611 45.9108 6.88611H44.9846V3.74492H42.9559V11.7527ZM54.5549 11.9297C55.6574 11.9297 56.6718 11.5758 57.2892 11.1334L56.7159 9.76185C56.1426 10.0715 55.6133 10.2928 54.8636 10.2928C53.4964 10.2928 52.6144 9.40791 52.6144 7.77095C52.6144 6.31096 53.4964 5.16067 54.9959 5.16067C55.7897 5.16067 56.3631 5.38188 56.9364 5.78006V4.05461C56.4954 3.78916 55.7897 3.5237 54.7754 3.5237C52.3938 3.5237 50.5415 5.29339 50.5415 7.8152C50.5415 10.1158 51.9528 11.9297 54.5549 11.9297Z" fill="#0BBBEF"/>
</svg>
